<?xml version="1.0" encoding="utf-8"?>
<!-- Generator: Adobe Illustrator 20.0.0, SVG Export Plug-In . SVG Version: 6.00 Build 0)  -->
<svg version="1.1" id="Layer_1" xmlns="http://www.w3.org/2000/svg" xmlns:xlink="http://www.w3.org/1999/xlink" x="0px" y="0px"
	 viewBox="0 0 24 24" style="enable-background:new 0 0 24 24;" xml:space="preserve">
<style type="text/css">
	.st0{fill:#FFFFFF;}
</style>
<path class="st0" d="M23.3,2.9l-1.9-2.3C21.2,0.3,20.7,0,20,0H4C3.3,0,2.8,0.3,2.4,0.7L0.7,2.9C0.3,3.5,0,4,0,4.7v16.7
	C0,22.8,1.2,24,2.7,24h18.7c1.5,0,2.7-1.2,2.7-2.7V4.7C24,4,23.7,3.5,23.3,2.9z M12,19.3L4.7,12h4.7V9.3h5.3V12h4.7L12,19.3z
	 M2.8,2.7l1.1-1.3h16l1.2,1.3H2.8z"/>
</svg>
