<?xml version="1.0" encoding="utf-8"?>
<!-- Generator: Adobe Illustrator 20.0.0, SVG Export Plug-In . SVG Version: 6.00 Build 0)  -->
<svg version="1.1" id="Layer_1" xmlns="http://www.w3.org/2000/svg" xmlns:xlink="http://www.w3.org/1999/xlink" x="0px" y="0px"
	 viewBox="0 0 24.6 2.3" style="enable-background:new 0 0 24.6 2.3;" xml:space="preserve">
<style type="text/css">
	.st0{fill:#FF5252;}
</style>
<g>
	<path d="M0.2,1.7V0.3h0.4c0.1,0,0.2,0,0.2,0S1,0.4,1,0.5s0.1,0.1,0.1,0.2s0,0.2,0,0.3v0.2c0,0.1,0,0.2,0,0.3S1.1,1.5,1,1.5
		S0.9,1.6,0.8,1.7s-0.1,0-0.2,0H0.2z M0.2,0.3v1.3h0.3c0.1,0,0.1,0,0.2,0S0.9,1.5,1,1.5s0.1-0.1,0.1-0.2s0-0.1,0-0.2V0.9
		c0-0.1,0-0.2,0-0.2S1,0.6,1,0.5S0.9,0.4,0.8,0.4s-0.1,0-0.2,0H0.2z"/>
	<path d="M1.9,1.7c-0.1,0-0.1,0-0.2,0S1.6,1.6,1.5,1.6S1.5,1.5,1.4,1.4s0-0.1,0-0.2v0c0-0.1,0-0.1,0-0.2s0.1-0.1,0.1-0.2
		s0.1-0.1,0.1-0.1s0.1,0,0.2,0c0.1,0,0.1,0,0.2,0s0.1,0.1,0.1,0.1s0.1,0.1,0.1,0.1s0,0.1,0,0.2v0.1H1.4v0v0c0,0.1,0,0.1,0,0.2
		s0,0.1,0.1,0.2s0.1,0.1,0.1,0.1S1.8,1.7,1.9,1.7C1.9,1.7,1.9,1.7,1.9,1.7C2,1.7,2,1.7,2,1.6s0.1,0,0.1,0s0,0,0.1-0.1l0,0
		c0,0,0,0-0.1,0.1s0,0-0.1,0.1S2,1.7,2,1.7S1.9,1.7,1.9,1.7z M1.8,0.7c-0.1,0-0.1,0-0.1,0s-0.1,0-0.1,0.1S1.5,0.9,1.5,0.9
		s0,0.1,0,0.2h0.7v0c0-0.1,0-0.1,0-0.2s0-0.1-0.1-0.1S2,0.7,2,0.7S1.9,0.7,1.8,0.7z"/>
	<path d="M3.1,1.5C3.1,1.4,3.1,1.4,3.1,1.5c0-0.1,0-0.1-0.1-0.1S3,1.3,3,1.2s-0.1,0-0.2-0.1c-0.1,0-0.1,0-0.2,0s-0.1,0-0.1-0.1
		S2.5,1,2.5,1s0-0.1,0-0.1c0,0,0-0.1,0-0.1s0-0.1,0.1-0.1s0.1,0,0.1-0.1s0.1,0,0.1,0c0.1,0,0.1,0,0.2,0s0.1,0,0.1,0.1
		s0.1,0.1,0.1,0.1s0,0.1,0,0.1H3.1c0,0,0-0.1,0-0.1s0-0.1-0.1-0.1S3,0.7,2.9,0.7s-0.1,0-0.1,0c-0.1,0-0.1,0-0.1,0s-0.1,0-0.1,0
		s0,0-0.1,0.1s0,0,0,0.1c0,0,0,0.1,0,0.1s0,0,0,0.1s0.1,0,0.1,0.1s0.1,0,0.2,0c0.1,0,0.1,0,0.2,0s0.1,0,0.1,0.1s0.1,0.1,0.1,0.1
		S3.2,1.4,3.1,1.5c0.1,0,0,0.1,0,0.1s0,0.1-0.1,0.1S3,1.7,3,1.7s-0.1,0-0.2,0c-0.1,0-0.1,0-0.2,0s-0.1,0-0.1-0.1S2.5,1.6,2.4,1.6
		s0-0.1,0-0.1h0.1c0,0,0,0.1,0,0.1s0,0.1,0.1,0.1s0.1,0,0.1,0s0.1,0,0.1,0c0.1,0,0.1,0,0.1,0s0.1,0,0.1-0.1S3.1,1.6,3.1,1.5
		C3.1,1.5,3.1,1.5,3.1,1.5z"/>
	<path d="M3.5,0.3C3.5,0.3,3.5,0.3,3.5,0.3C3.5,0.3,3.5,0.3,3.5,0.3C3.5,0.3,3.5,0.3,3.5,0.3c0.1,0,0.1,0,0.1,0S3.6,0.4,3.5,0.3
		C3.5,0.4,3.5,0.4,3.5,0.3C3.5,0.4,3.5,0.4,3.5,0.3C3.5,0.4,3.5,0.3,3.5,0.3z M3.5,1.7L3.5,1.7L3.5,0.7h0.1V1.7z"/>
	<path d="M3.8,1.2c0-0.1,0-0.2,0-0.2s0-0.1,0.1-0.2S4,0.7,4.1,0.7s0.1,0,0.2,0c0,0,0.1,0,0.1,0s0.1,0,0.1,0s0.1,0,0.1,0.1
		s0,0.1,0.1,0.1V0.7h0.1v1c0,0.1,0,0.1,0,0.2S4.6,2,4.5,2c0,0-0.1,0.1-0.1,0.1s-0.1,0-0.2,0c0,0-0.1,0-0.1,0s-0.1,0-0.1,0S4,2.1,4,2
		c0,0,0,0-0.1-0.1l0,0C4,2,4,2,4.1,2c0,0,0.1,0,0.2,0c0.1,0,0.1,0,0.2,0c0,0,0.1,0,0.1-0.1s0.1-0.1,0.1-0.1s0-0.1,0-0.2V1.5
		c0,0,0,0.1-0.1,0.1s0,0-0.1,0.1s-0.1,0-0.1,0s-0.1,0-0.1,0c-0.1,0-0.1,0-0.2,0S4,1.6,3.9,1.6S3.9,1.5,3.9,1.4S3.8,1.3,3.8,1.2
		L3.8,1.2z M3.9,1.2c0,0.1,0,0.1,0,0.2S4,1.5,4,1.5S4,1.6,4.1,1.6s0.1,0,0.2,0c0,0,0.1,0,0.1,0s0.1,0,0.1,0s0.1,0,0.1-0.1
		s0-0.1,0-0.1V1c0,0,0-0.1,0-0.1s0-0.1-0.1-0.1s-0.1,0-0.1-0.1s-0.1,0-0.1,0c-0.1,0-0.1,0-0.2,0S4,0.8,4,0.8s0,0.1-0.1,0.2
		S3.9,1.1,3.9,1.2L3.9,1.2z"/>
	<path d="M5.1,0.8C5.1,0.8,5.2,0.7,5.1,0.8c0.1-0.1,0.2-0.1,0.2-0.1s0.1,0,0.1,0c0.1,0,0.1,0,0.1,0s0.1,0,0.1,0.1s0.1,0.1,0.1,0.1
		s0,0.1,0,0.2v0.7H5.7V1c0-0.1,0-0.1,0-0.2s0-0.1-0.1-0.1s-0.1,0-0.1-0.1s-0.1,0-0.1,0c0,0-0.1,0-0.1,0s-0.1,0-0.1,0
		S5.2,0.8,5.1,0.8C5.1,0.8,5.1,0.9,5.1,0.8c0,0.1,0,0.1,0,0.2S5,1,5,1v0.7H5V0.7H5v0.2C5.1,0.9,5.1,0.8,5.1,0.8z"/>
	<path d="M7.2,1.7C7.2,1.7,7.2,1.7,7.2,1.7c0-0.1,0-0.2,0-0.2c0,0,0,0.1-0.1,0.1s-0.1,0-0.1,0.1S7,1.7,7,1.7s-0.1,0-0.1,0
		c0,0-0.1,0-0.1,0s-0.1,0-0.1-0.1S6.5,1.6,6.5,1.6s0-0.1,0-0.1c0,0,0-0.1,0-0.1s0.1-0.1,0.1-0.1s0.1-0.1,0.2-0.1s0.1,0,0.2,0h0.3V1
		c0-0.1,0-0.2-0.1-0.2S7,0.7,6.9,0.7c0,0-0.1,0-0.1,0s-0.1,0-0.1,0.1S6.6,0.8,6.6,0.8s0,0.1,0,0.1l-0.1,0c0,0,0-0.1,0-0.1
		s0-0.1,0.1-0.1s0.1-0.1,0.1-0.1s0.1,0,0.2,0c0.1,0,0.1,0,0.2,0s0.1,0,0.1,0.1s0.1,0.1,0.1,0.1s0,0.1,0,0.1v0.5c0,0,0,0,0,0.1
		S7.3,1.6,7.2,1.7C7.3,1.6,7.3,1.6,7.2,1.7C7.3,1.7,7.3,1.7,7.2,1.7L7.2,1.7L7.2,1.7z M6.8,1.7c0.1,0,0.1,0,0.1,0s0.1,0,0.1-0.1
		s0.1,0,0.1-0.1s0-0.1,0.1-0.1V1.2H7c-0.1,0-0.1,0-0.2,0s-0.1,0-0.1,0.1S6.6,1.3,6.6,1.3s0,0.1,0,0.1c0,0,0,0.1,0,0.1s0,0.1,0.1,0.1
		s0.1,0,0.1,0S6.8,1.7,6.8,1.7z"/>
	<path d="M7.7,0.8C7.8,0.8,7.8,0.7,7.7,0.8c0.1-0.1,0.2-0.1,0.2-0.1s0.1,0,0.1,0c0.1,0,0.1,0,0.1,0s0.1,0,0.1,0.1
		c0,0,0.1,0.1,0.1,0.1c0,0,0,0.1,0,0.2v0.7H8.3V1c0-0.1,0-0.1,0-0.2c0,0,0-0.1-0.1-0.1s-0.1,0-0.1-0.1s-0.1,0-0.1,0c0,0-0.1,0-0.1,0
		s-0.1,0-0.1,0S7.8,0.8,7.7,0.8C7.8,0.8,7.7,0.9,7.7,0.8c0,0.1,0,0.1,0,0.2s0,0.1,0,0.1v0.7H7.6V0.7h0.1v0.2
		C7.7,0.9,7.7,0.8,7.7,0.8z"/>
	<path d="M8.7,1.2c0-0.1,0-0.2,0-0.2c0-0.1,0-0.1,0.1-0.2s0.1-0.1,0.1-0.1c0,0,0.1,0,0.2,0c0,0,0.1,0,0.1,0c0,0,0.1,0,0.1,0
		c0,0,0.1,0,0.1,0.1c0,0,0,0.1,0.1,0.1V0.2h0.1v1.5H9.4V1.5c0,0,0,0.1-0.1,0.1c0,0,0,0-0.1,0.1s-0.1,0-0.1,0c0,0-0.1,0-0.1,0
		c-0.1,0-0.1,0-0.2,0c0,0-0.1-0.1-0.1-0.1c0,0-0.1-0.1-0.1-0.2C8.7,1.3,8.7,1.3,8.7,1.2L8.7,1.2z M8.7,1.2c0,0.1,0,0.1,0,0.2
		c0,0.1,0,0.1,0.1,0.2c0,0,0.1,0.1,0.1,0.1c0,0,0.1,0,0.2,0c0,0,0.1,0,0.1,0s0.1,0,0.1,0c0,0,0.1,0,0.1-0.1c0,0,0-0.1,0.1-0.1V1
		c0,0,0-0.1,0-0.1s0-0.1-0.1-0.1s-0.1,0-0.1-0.1c0,0-0.1,0-0.1,0c-0.1,0-0.1,0-0.2,0S8.8,0.8,8.8,0.8s0,0.1-0.1,0.2
		C8.7,1,8.7,1.1,8.7,1.2L8.7,1.2z"/>
	<path d="M11.3,1.3c0,0.1,0,0.1-0.1,0.2c0,0.1-0.1,0.1-0.1,0.1c0,0-0.1,0.1-0.2,0.1c-0.1,0-0.1,0-0.2,0c-0.1,0-0.1,0-0.2,0
		s-0.1-0.1-0.2-0.1c0-0.1-0.1-0.1-0.1-0.2s0-0.2,0-0.3V0.9c0-0.1,0-0.2,0-0.3s0.1-0.1,0.1-0.2c0-0.1,0.1-0.1,0.2-0.1s0.1,0,0.2,0
		c0.1,0,0.1,0,0.2,0c0.1,0,0.1,0,0.2,0.1c0,0,0.1,0.1,0.1,0.1c0,0.1,0,0.1,0.1,0.2h-0.1c0-0.1-0.1-0.2-0.1-0.3s-0.2-0.1-0.3-0.1
		c-0.1,0-0.1,0-0.2,0s-0.1,0.1-0.1,0.1c0,0-0.1,0.1-0.1,0.2c0,0.1,0,0.1,0,0.2v0.2c0,0.1,0,0.2,0,0.2c0,0.1,0.1,0.1,0.1,0.2
		c0,0,0.1,0.1,0.1,0.1s0.1,0,0.2,0c0.1,0,0.1,0,0.2,0s0.1,0,0.1-0.1c0,0,0.1-0.1,0.1-0.1S11.2,1.3,11.3,1.3L11.3,1.3z"/>
	<path d="M11.5,1.2c0-0.1,0-0.1,0-0.2s0.1-0.1,0.1-0.2c0,0,0.1-0.1,0.1-0.1s0.1,0,0.2,0c0.1,0,0.1,0,0.2,0c0.1,0,0.1,0.1,0.1,0.1
		c0,0,0.1,0.1,0.1,0.2s0,0.1,0,0.2v0c0,0.1,0,0.1,0,0.2c0,0.1-0.1,0.1-0.1,0.2c0,0-0.1,0.1-0.1,0.1s-0.1,0-0.2,0s-0.1,0-0.2,0
		c-0.1,0-0.1-0.1-0.1-0.1c0,0-0.1-0.1-0.1-0.2S11.5,1.3,11.5,1.2L11.5,1.2z M11.6,1.2c0,0.1,0,0.1,0,0.2s0,0.1,0.1,0.2
		s0.1,0.1,0.1,0.1s0.1,0,0.2,0s0.1,0,0.2,0c0,0,0.1-0.1,0.1-0.1c0,0,0.1-0.1,0.1-0.2s0-0.1,0-0.2v0c0-0.1,0-0.1,0-0.2s0-0.1-0.1-0.2
		s-0.1-0.1-0.1-0.1s-0.1,0-0.2,0s-0.1,0-0.2,0s-0.1,0.1-0.1,0.1c0,0-0.1,0.1-0.1,0.2S11.6,1.1,11.6,1.2L11.6,1.2z"/>
	<path d="M12.6,1.2c0-0.1,0-0.2,0-0.2c0-0.1,0-0.1,0.1-0.2s0.1-0.1,0.1-0.1c0,0,0.1,0,0.2,0c0,0,0.1,0,0.1,0c0,0,0.1,0,0.1,0
		c0,0,0.1,0,0.1,0.1c0,0,0,0.1,0.1,0.1V0.2h0.1v1.5h-0.1V1.5c0,0,0,0.1-0.1,0.1c0,0,0,0-0.1,0.1s-0.1,0-0.1,0c0,0-0.1,0-0.1,0
		c-0.1,0-0.1,0-0.2,0c0,0-0.1-0.1-0.1-0.1c0,0-0.1-0.1-0.1-0.2C12.6,1.3,12.6,1.3,12.6,1.2L12.6,1.2z M12.7,1.2c0,0.1,0,0.1,0,0.2
		c0,0.1,0,0.1,0.1,0.2c0,0,0.1,0.1,0.1,0.1c0,0,0.1,0,0.2,0c0,0,0.1,0,0.1,0s0.1,0,0.1,0c0,0,0.1,0,0.1-0.1c0,0,0-0.1,0.1-0.1V1
		c0,0,0-0.1,0-0.1s0-0.1-0.1-0.1s-0.1,0-0.1-0.1c0,0-0.1,0-0.1,0c-0.1,0-0.1,0-0.2,0s-0.1,0.1-0.1,0.1s0,0.1-0.1,0.2
		C12.7,1,12.7,1.1,12.7,1.2L12.7,1.2z"/>
	<path d="M14.2,1.7c-0.1,0-0.1,0-0.2,0c-0.1,0-0.1-0.1-0.1-0.1s-0.1-0.1-0.1-0.2c0-0.1,0-0.1,0-0.2v0c0-0.1,0-0.1,0-0.2
		s0.1-0.1,0.1-0.2s0.1-0.1,0.1-0.1s0.1,0,0.2,0c0.1,0,0.1,0,0.2,0c0,0,0.1,0.1,0.1,0.1c0,0,0.1,0.1,0.1,0.1c0,0.1,0,0.1,0,0.2v0.1
		h-0.8v0v0c0,0.1,0,0.1,0,0.2c0,0.1,0,0.1,0.1,0.2c0,0,0.1,0.1,0.1,0.1C14,1.7,14.1,1.7,14.2,1.7C14.2,1.7,14.2,1.7,14.2,1.7
		c0.1-0.1,0.1-0.1,0.2-0.1c0,0,0.1,0,0.1,0c0,0,0,0,0.1-0.1l0,0c0,0,0,0-0.1,0.1c0,0,0,0-0.1,0.1c0,0-0.1,0-0.1,0S14.2,1.7,14.2,1.7
		z M14.1,0.7c-0.1,0-0.1,0-0.1,0c0,0-0.1,0-0.1,0.1c0,0-0.1,0.1-0.1,0.1c0,0,0,0.1,0,0.2h0.7v0c0-0.1,0-0.1,0-0.2s0-0.1-0.1-0.1
		s-0.1-0.1-0.1-0.1S14.2,0.7,14.1,0.7z"/>
	<path d="M14.7,1.2c0-0.1,0-0.2,0-0.2c0-0.1,0-0.1,0.1-0.2c0,0,0.1-0.1,0.1-0.1s0.1,0,0.2,0c0,0,0.1,0,0.1,0s0.1,0,0.1,0
		c0,0,0.1,0,0.1,0.1c0,0,0,0.1,0.1,0.1V0.2h0.1v1.5h-0.1V1.5c0,0,0,0.1-0.1,0.1c0,0,0,0-0.1,0.1c0,0-0.1,0-0.1,0c0,0-0.1,0-0.1,0
		c-0.1,0-0.1,0-0.2,0c0,0-0.1-0.1-0.1-0.1s-0.1-0.1-0.1-0.2C14.7,1.3,14.7,1.3,14.7,1.2L14.7,1.2z M14.8,1.2c0,0.1,0,0.1,0,0.2
		c0,0.1,0,0.1,0.1,0.2s0.1,0.1,0.1,0.1c0,0,0.1,0,0.2,0c0,0,0.1,0,0.1,0s0.1,0,0.1,0s0.1,0,0.1-0.1s0-0.1,0.1-0.1V1c0,0,0-0.1,0-0.1
		s0-0.1-0.1-0.1c0,0-0.1,0-0.1-0.1c0,0-0.1,0-0.1,0c-0.1,0-0.1,0-0.2,0s-0.1,0.1-0.1,0.1c0,0,0,0.1-0.1,0.2
		C14.8,1,14.8,1.1,14.8,1.2L14.8,1.2z"/>
	<path d="M17.2,1.2c0,0.1,0,0.2,0,0.2c0,0.1,0,0.1-0.1,0.2S17,1.7,16.9,1.7c0,0-0.1,0-0.2,0c0,0-0.1,0-0.1,0c0,0-0.1,0-0.1,0
		s-0.1,0-0.1-0.1s0,0-0.1-0.1v0.2h-0.1V0.2h0.1v0.6c0,0,0-0.1,0.1-0.1c0,0,0,0,0.1-0.1s0.1,0,0.1,0s0.1,0,0.1,0c0.1,0,0.1,0,0.2,0
		s0.1,0.1,0.1,0.1c0,0,0.1,0.1,0.1,0.2C17.2,1,17.2,1.1,17.2,1.2L17.2,1.2z M17.1,1.2c0-0.1,0-0.1,0-0.2c0-0.1,0-0.1-0.1-0.2
		c0,0-0.1-0.1-0.1-0.1s-0.1,0-0.2,0c-0.1,0-0.1,0-0.1,0s-0.1,0-0.1,0.1c0,0-0.1,0.1-0.1,0.1c0,0,0,0.1,0,0.1v0.5c0,0,0,0.1,0,0.1
		s0,0.1,0.1,0.1c0,0,0.1,0,0.1,0c0,0,0.1,0,0.1,0c0.1,0,0.1,0,0.2,0S17,1.6,17,1.5s0-0.1,0.1-0.2C17.1,1.3,17.1,1.3,17.1,1.2
		L17.1,1.2z"/>
	<path d="M17.8,1.6L17.8,1.6l0.4-1h0.1l-0.5,1.2c0,0,0,0,0,0.1c0,0,0,0.1,0,0.1c0,0,0,0-0.1,0.1c0,0-0.1,0-0.1,0c0,0,0,0,0,0
		c0,0,0,0,0,0c0,0,0,0,0,0c0,0,0,0,0,0l0,0c0,0,0,0,0,0s0,0,0,0c0,0,0,0,0,0c0,0,0,0,0,0c0,0,0.1,0,0.1,0c0,0,0,0,0.1,0
		c0,0,0,0,0-0.1s0-0.1,0-0.1L17.8,1.6l-0.4-1h0.1L17.8,1.6z"/>
	<path class="st0" d="M19,0.3l0.6,1.3l0.6-1.3h0.1v1.4h-0.1V0.4l-0.6,1.3h0L19,0.3l0,1.4h-0.1L19,0.3L19,0.3z"/>
	<path class="st0" d="M20.5,1.2c0-0.1,0-0.1,0-0.2c0-0.1,0.1-0.1,0.1-0.2c0,0,0.1-0.1,0.1-0.1s0.1,0,0.2,0c0.1,0,0.1,0,0.2,0
		c0.1,0,0.1,0.1,0.1,0.1s0.1,0.1,0.1,0.2c0,0.1,0,0.1,0,0.2v0c0,0.1,0,0.1,0,0.2s-0.1,0.1-0.1,0.2c0,0-0.1,0.1-0.1,0.1s-0.1,0-0.2,0
		c-0.1,0-0.1,0-0.2,0c-0.1,0-0.1-0.1-0.1-0.1c0,0-0.1-0.1-0.1-0.2C20.5,1.4,20.5,1.3,20.5,1.2L20.5,1.2z M20.6,1.2
		c0,0.1,0,0.1,0,0.2c0,0.1,0,0.1,0.1,0.2s0.1,0.1,0.1,0.1s0.1,0,0.2,0c0.1,0,0.1,0,0.2,0c0,0,0.1-0.1,0.1-0.1c0,0,0.1-0.1,0.1-0.2
		c0-0.1,0-0.1,0-0.2v0c0-0.1,0-0.1,0-0.2c0-0.1,0-0.1-0.1-0.2s-0.1-0.1-0.1-0.1s-0.1,0-0.2,0s-0.1,0-0.2,0s-0.1,0.1-0.1,0.1
		c0,0-0.1,0.1-0.1,0.2C20.6,1,20.6,1.1,20.6,1.2L20.6,1.2z"/>
	<path class="st0" d="M22.4,1.7C22.4,1.7,22.4,1.7,22.4,1.7c0-0.1,0-0.2,0-0.2c0,0,0,0.1-0.1,0.1s-0.1,0-0.1,0.1s-0.1,0-0.1,0
		s-0.1,0-0.1,0c0,0-0.1,0-0.1,0c0,0-0.1,0-0.1-0.1c0,0,0-0.1-0.1-0.1c0,0,0-0.1,0-0.1c0,0,0-0.1,0-0.1s0.1-0.1,0.1-0.1
		c0,0,0.1-0.1,0.2-0.1s0.1,0,0.2,0h0.3V1c0-0.1,0-0.2-0.1-0.2c-0.1,0-0.1-0.1-0.2-0.1c0,0-0.1,0-0.1,0s-0.1,0-0.1,0.1
		c0,0-0.1,0.1-0.1,0.1c0,0,0,0.1,0,0.1l-0.1,0c0,0,0-0.1,0-0.1c0,0,0-0.1,0.1-0.1c0,0,0.1-0.1,0.1-0.1c0,0,0.1,0,0.2,0
		c0.1,0,0.1,0,0.2,0c0,0,0.1,0,0.1,0.1s0.1,0.1,0.1,0.1c0,0,0,0.1,0,0.1v0.5c0,0,0,0,0,0.1S22.4,1.6,22.4,1.7
		C22.4,1.6,22.4,1.6,22.4,1.7C22.4,1.7,22.4,1.7,22.4,1.7L22.4,1.7L22.4,1.7z M21.9,1.7c0.1,0,0.1,0,0.1,0c0,0,0.1,0,0.1-0.1
		c0,0,0.1,0,0.1-0.1c0,0,0-0.1,0.1-0.1V1.2h-0.2c-0.1,0-0.1,0-0.2,0s-0.1,0-0.1,0.1s-0.1,0.1-0.1,0.1s0,0.1,0,0.1c0,0,0,0.1,0,0.1
		c0,0,0,0.1,0.1,0.1s0.1,0,0.1,0S21.9,1.7,21.9,1.7z"/>
	<path class="st0" d="M23.4,1.7C23.4,1.7,23.4,1.7,23.4,1.7c0-0.1,0-0.2,0-0.2c0,0,0,0.1-0.1,0.1s-0.1,0-0.1,0.1s-0.1,0-0.1,0
		s-0.1,0-0.1,0c0,0-0.1,0-0.1,0c0,0-0.1,0-0.1-0.1c0,0,0-0.1-0.1-0.1c0,0,0-0.1,0-0.1c0,0,0-0.1,0-0.1s0.1-0.1,0.1-0.1
		c0,0,0.1-0.1,0.2-0.1s0.1,0,0.2,0h0.3V1c0-0.1,0-0.2-0.1-0.2c-0.1,0-0.1-0.1-0.2-0.1c0,0-0.1,0-0.1,0s-0.1,0-0.1,0.1
		c0,0-0.1,0.1-0.1,0.1c0,0,0,0.1,0,0.1l-0.1,0c0,0,0-0.1,0-0.1c0,0,0-0.1,0.1-0.1c0,0,0.1-0.1,0.1-0.1c0,0,0.1,0,0.2,0
		c0.1,0,0.1,0,0.2,0c0,0,0.1,0,0.1,0.1s0.1,0.1,0.1,0.1c0,0,0,0.1,0,0.1v0.5c0,0,0,0,0,0.1S23.5,1.6,23.4,1.7
		C23.5,1.6,23.5,1.6,23.4,1.7C23.5,1.7,23.5,1.7,23.4,1.7L23.4,1.7L23.4,1.7z M23,1.7c0.1,0,0.1,0,0.1,0c0,0,0.1,0,0.1-0.1
		c0,0,0.1,0,0.1-0.1c0,0,0-0.1,0.1-0.1V1.2h-0.2c-0.1,0-0.1,0-0.2,0s-0.1,0-0.1,0.1s-0.1,0.1-0.1,0.1s0,0.1,0,0.1c0,0,0,0.1,0,0.1
		c0,0,0,0.1,0.1,0.1s0.1,0,0.1,0S23,1.7,23,1.7z"/>
	<path class="st0" d="M23.8,1.7h0.8v0.1L23.8,1.7L23.8,1.7l0.6-1h-0.7V0.7h0.7v0L23.8,1.7z"/>
</g>
</svg>
