<?xml version="1.0" encoding="utf-8"?>
<!-- Generator: Adobe Illustrator 20.0.0, SVG Export Plug-In . SVG Version: 6.00 Build 0)  -->
<svg version="1.1" id="Layer_1" xmlns="http://www.w3.org/2000/svg" xmlns:xlink="http://www.w3.org/1999/xlink" x="0px" y="0px"
	 viewBox="0 0 960 560" style="enable-background:new 0 0 960 560;" xml:space="preserve">
<style type="text/css">
	.st0{fill:#FF5252;}
</style>
<g>
	<path d="M367.5,285.7v-12h3.6c3.7,0,6,2.8,6,6c0,3.2-2.3,6-6,6H367.5z M376.4,279.7c0-3-1.9-5.5-5.3-5.5h-3v10.9h3
		C374.5,285.2,376.4,282.8,376.4,279.7z"/>
	<path d="M379.3,281.4c0-2.5,1.7-4.6,4.1-4.6c2.7,0,4,2.1,4,4.6v0.2h-7.5c0.1,2.1,1.4,3.9,3.7,3.9c1.2,0,2.2-0.5,3-1.3l0.3,0.3
		c-0.9,0.9-1.9,1.5-3.3,1.5C381,285.9,379.3,284,379.3,281.4z M383.4,277.3c-2.2,0-3.4,2.1-3.5,3.8h6.9
		C386.8,279.4,385.7,277.3,383.4,277.3z"/>
	<path d="M389.3,284.5l0.4-0.4c0.5,0.7,1.5,1.3,2.8,1.3c1.6,0,2.6-0.9,2.6-2c0-2.7-5.6-1.3-5.6-4.3c0-1.3,1.1-2.3,3-2.3
		c1.5,0,2.4,0.6,3,1.3l-0.4,0.4c-0.5-0.7-1.4-1.2-2.6-1.2c-1.5,0-2.4,0.8-2.4,1.8c0,2.4,5.6,1,5.6,4.3c0,1.4-1,2.5-3.1,2.5
		C391.1,285.9,390.2,285.5,389.3,284.5z"/>
	<path d="M398,275c0-0.3,0.3-0.5,0.5-0.5c0.3,0,0.5,0.2,0.5,0.5s-0.2,0.5-0.5,0.5C398.2,275.5,398,275.3,398,275z M398.2,285.7V277
		h0.5v8.7H398.2z"/>
	<path d="M401.9,287.9l0.4-0.5c0.8,0.9,1.6,1.3,2.9,1.3c1.7,0,3.1-0.9,3.1-3v-1.5c-0.6,0.9-1.8,1.7-3.1,1.7c-2.3,0-3.9-1.8-3.9-4.6
		c0-2.7,1.5-4.6,3.9-4.6c1.3,0,2.4,0.7,3.1,1.7V277h0.5v8.8c0,2.5-1.6,3.5-3.7,3.5C403.8,289.2,403,289,401.9,287.9z M408.4,283.7
		V279c-0.5-0.9-1.8-1.8-3.1-1.8c-2.1,0-3.3,1.8-3.3,4.1c0,2.3,1.2,4.1,3.3,4.1C406.6,285.5,407.9,284.6,408.4,283.7z"/>
	<path d="M417.9,285.7v-6.1c0-1.8-0.9-2.4-2.2-2.4c-1.2,0-2.5,0.8-3.1,1.6v6.8H412V277h0.5v1.4c0.6-0.8,1.9-1.6,3.2-1.6
		c1.7,0,2.7,0.8,2.7,2.8v6.1H417.9z"/>
	<path d="M432.8,285.7v-1.5c-0.6,0.9-1.8,1.7-3.1,1.7c-2.3,0-3.9-1.8-3.9-4.6c0-2.7,1.5-4.6,3.9-4.6c1.3,0,2.4,0.7,3.1,1.7V277h0.5
		v8.7H432.8z M432.8,283.7V279c-0.5-0.9-1.8-1.8-3.1-1.8c-2.1,0-3.3,1.8-3.3,4.1c0,2.3,1.2,4.1,3.3,4.1
		C431,285.4,432.2,284.6,432.8,283.7z"/>
	<path d="M442.3,285.7v-6.1c0-1.8-0.9-2.4-2.2-2.4c-1.2,0-2.5,0.8-3.1,1.6v6.8h-0.5V277h0.5v1.4c0.6-0.8,1.9-1.6,3.2-1.6
		c1.7,0,2.7,0.8,2.7,2.8v6.1H442.3z"/>
	<path d="M452.5,285.7v-1.5c-0.6,0.9-1.8,1.7-3.1,1.7c-2.3,0-3.9-1.8-3.9-4.6c0-2.7,1.5-4.6,3.9-4.6c1.3,0,2.4,0.7,3.1,1.7v-4.8h0.5
		v12H452.5z M452.5,283.7V279c-0.5-0.9-1.8-1.8-3.1-1.8c-2.1,0-3.3,1.8-3.3,4.1c0,2.3,1.2,4.1,3.3,4.1
		C450.7,285.4,451.9,284.6,452.5,283.7z"/>
	<path d="M460.4,279.7c0-3.7,2.7-6.2,6-6.2c1.7,0,3.1,0.7,4.2,1.9l-0.5,0.4c-0.8-1.1-2.2-1.7-3.7-1.7c-3,0-5.4,2.3-5.4,5.7
		c0,3.3,2.4,5.7,5.4,5.7c1.5,0,2.9-0.7,3.7-1.7l0.5,0.4c-1.1,1.3-2.5,1.9-4.2,1.9C463.1,285.9,460.4,283.4,460.4,279.7z"/>
	<path d="M472.3,281.4c0-2.6,1.6-4.6,4.1-4.6c2.5,0,4.1,2,4.1,4.6c0,2.6-1.6,4.6-4.1,4.6C473.9,285.9,472.3,283.9,472.3,281.4z
		 M479.8,281.4c0-2.1-1.2-4.1-3.5-4.1c-2.2,0-3.5,2-3.5,4.1c0,2.1,1.2,4.1,3.5,4.1C478.6,285.4,479.8,283.5,479.8,281.4z"/>
	<path d="M489.6,285.7v-1.5c-0.6,0.9-1.8,1.7-3.1,1.7c-2.3,0-3.9-1.8-3.9-4.6c0-2.7,1.5-4.6,3.9-4.6c1.3,0,2.4,0.7,3.1,1.7v-4.8h0.5
		v12H489.6z M489.6,283.7V279c-0.5-0.9-1.8-1.8-3.1-1.8c-2.1,0-3.3,1.8-3.3,4.1c0,2.3,1.2,4.1,3.3,4.1
		C487.8,285.4,489.1,284.6,489.6,283.7z"/>
	<path d="M492.8,281.4c0-2.5,1.7-4.6,4.1-4.6c2.7,0,4,2.1,4,4.6v0.2h-7.5c0.1,2.1,1.4,3.9,3.7,3.9c1.2,0,2.2-0.5,3-1.3l0.3,0.3
		c-0.9,0.9-1.9,1.5-3.3,1.5C494.5,285.9,492.8,284,492.8,281.4z M496.8,277.3c-2.2,0-3.4,2.1-3.5,3.8h6.9
		C500.3,279.4,499.2,277.3,496.8,277.3z"/>
	<path d="M510.1,285.7v-1.5c-0.6,0.9-1.8,1.7-3.1,1.7c-2.3,0-3.9-1.8-3.9-4.6c0-2.7,1.5-4.6,3.9-4.6c1.3,0,2.4,0.7,3.1,1.7v-4.8h0.5
		v12H510.1z M510.1,283.7V279c-0.5-0.9-1.8-1.8-3.1-1.8c-2.1,0-3.3,1.8-3.3,4.1c0,2.3,1.2,4.1,3.3,4.1
		C508.3,285.4,509.5,284.6,510.1,283.7z"/>
	<path d="M518.4,285.7v-12h0.5v4.8c0.7-1,1.8-1.7,3.1-1.7c2.3,0,3.9,1.8,3.9,4.6c0,2.8-1.5,4.6-3.9,4.6c-1.4,0-2.5-0.8-3.1-1.7v1.5
		H518.4z M522.1,285.4c2.1,0,3.3-1.8,3.3-4.1c0-2.3-1.2-4.1-3.3-4.1c-1.4,0-2.6,0.8-3.1,1.8v4.7
		C519.5,284.6,520.7,285.4,522.1,285.4z"/>
	<path d="M528.5,287.9l0.4-0.5c0.7,0.9,1.5,1.3,2.7,1.3c1.8,0,2.9-1.1,2.9-3v-1.4c-0.7,0.8-1.9,1.5-3.2,1.5c-1.7,0-2.7-0.8-2.7-2.8
		V277h0.5v6.1c0,1.8,0.9,2.3,2.2,2.3c1.2,0,2.5-0.7,3.1-1.6V277h0.5v8.8c0,2.6-1.8,3.5-3.4,3.5C530.1,289.2,529.3,288.8,528.5,287.9
		z"/>
	<path class="st0" d="M552.9,285.7v-11.3l-4.7,11.3h-0.2l-4.7-11.3v11.3h-0.6v-12h0.9l4.4,10.7l4.4-10.7h0.9v12H552.9z"/>
	<path class="st0" d="M556.1,281.4c0-2.6,1.6-4.6,4.1-4.6c2.5,0,4.1,2,4.1,4.6c0,2.6-1.6,4.6-4.1,4.6
		C557.8,285.9,556.1,283.9,556.1,281.4z M563.7,281.4c0-2.1-1.2-4.1-3.5-4.1c-2.2,0-3.5,2-3.5,4.1c0,2.1,1.2,4.1,3.5,4.1
		C562.4,285.4,563.7,283.5,563.7,281.4z"/>
	<path class="st0" d="M573.4,285.7v-1.5c-0.6,0.9-1.8,1.7-3.1,1.7c-2.3,0-3.9-1.8-3.9-4.6c0-2.7,1.5-4.6,3.9-4.6
		c1.3,0,2.4,0.7,3.1,1.7V277h0.5v8.7H573.4z M573.4,283.7V279c-0.5-0.9-1.8-1.8-3.1-1.8c-2.1,0-3.3,1.8-3.3,4.1
		c0,2.3,1.2,4.1,3.3,4.1C571.6,285.4,572.9,284.6,573.4,283.7z"/>
	<path class="st0" d="M583.6,285.7v-1.5c-0.6,0.9-1.8,1.7-3.1,1.7c-2.3,0-3.9-1.8-3.9-4.6c0-2.7,1.5-4.6,3.9-4.6
		c1.3,0,2.4,0.7,3.1,1.7V277h0.5v8.7H583.6z M583.6,283.7V279c-0.5-0.9-1.8-1.8-3.1-1.8c-2.1,0-3.3,1.8-3.3,4.1
		c0,2.3,1.2,4.1,3.3,4.1C581.8,285.4,583.1,284.6,583.6,283.7z"/>
	<path class="st0" d="M586.8,285.7v-0.5l5.5-7.7h-5.5V277h6.2v0.5l-5.6,7.7h5.6v0.5H586.8z"/>
</g>
</svg>
