<?xml version="1.0" encoding="utf-8"?>
<!-- Generator: Adobe Illustrator 20.0.0, SVG Export Plug-In . SVG Version: 6.00 Build 0)  -->
<svg version="1.1" id="Layer_1" xmlns="http://www.w3.org/2000/svg" xmlns:xlink="http://www.w3.org/1999/xlink" x="0px" y="0px"
	 viewBox="0 0 391.2 33.6" style="enable-background:new 0 0 391.2 33.6;" xml:space="preserve">
<style type="text/css">
	.st0{fill:#FFFFFF;}
	.st1{fill:#FF5252;}
</style>
<g>
	<path class="st0" d="M1.6,28.7V12h6.6c5.2,0,8.8,3.3,8.8,8.3c0,5-3.6,8.3-8.8,8.3H1.6z M13.4,20.3c0-2.9-1.8-5.2-5.2-5.2h-3v10.4h3
		C11.5,25.5,13.4,23.2,13.4,20.3z"/>
	<path class="st0" d="M18.7,22.6c0-3.5,2.6-6.3,6.2-6.3c3.6,0,6,2.7,6,6.6v0.8h-9c0.2,1.5,1.4,2.7,3.5,2.7c1,0,2.4-0.4,3.2-1.2
		l1.4,2.1c-1.2,1.1-3.1,1.7-5,1.7C21.5,29,18.7,26.5,18.7,22.6z M25,18.9c-2,0-2.8,1.4-2.9,2.6H28C27.9,20.3,27.1,18.9,25,18.9z"/>
	<path class="st0" d="M32.3,27.1l1.4-2.3c0.9,0.8,2.7,1.7,4.2,1.7c1.4,0,2-0.5,2-1.3c0-2-7.1-0.4-7.1-5.1c0-2,1.7-3.8,4.9-3.8
		c2,0,3.6,0.7,4.8,1.6l-1.3,2.2c-0.7-0.7-2.1-1.4-3.6-1.4c-1.1,0-1.9,0.5-1.9,1.2c0,1.8,7.2,0.3,7.2,5.1c0,2.2-1.9,3.8-5.2,3.8
		C35.6,29,33.6,28.3,32.3,27.1z"/>
	<path class="st0" d="M45,13.4c0-1,0.8-1.9,1.9-1.9c1,0,1.9,0.8,1.9,1.9c0,1-0.9,1.9-1.9,1.9C45.8,15.3,45,14.4,45,13.4z M45.3,28.7
		V16.6h3.2v12.1H45.3z"/>
	<path class="st0" d="M51.3,31.8l1.4-2.3c1,1,2.3,1.5,3.8,1.5c1.5,0,3.3-0.6,3.3-3.1v-1.2c-0.9,1.2-2.2,1.9-3.7,1.9
		c-3,0-5.3-2.1-5.3-6.1c0-3.9,2.3-6.1,5.3-6.1c1.4,0,2.8,0.6,3.7,1.8v-1.5h3.2v11.3c0,4.6-3.5,5.7-6.5,5.7
		C54.5,33.6,52.9,33.1,51.3,31.8z M59.9,24.4v-3.9c-0.5-0.8-1.7-1.4-2.7-1.4c-1.8,0-3.1,1.2-3.1,3.3c0,2.1,1.2,3.3,3.1,3.3
		C58.2,25.8,59.3,25.2,59.9,24.4z"/>
	<path class="st0" d="M74.4,28.7v-7.3c0-1.7-0.9-2.2-2.2-2.2c-1.2,0-2.2,0.7-2.7,1.4v8.1h-3.2V16.6h3.2v1.5c0.8-0.9,2.3-1.8,4.2-1.8
		c2.7,0,3.9,1.5,3.9,3.8v8.5H74.4z"/>
	<path class="st0" d="M95.4,28.7v-1.5c-0.9,1.2-2.2,1.8-3.7,1.8c-3,0-5.3-2.3-5.3-6.3c0-3.9,2.3-6.3,5.3-6.3c1.4,0,2.7,0.6,3.7,1.8
		v-1.5h3.2v12.1H95.4z M95.4,24.8v-4.2c-0.5-0.8-1.7-1.4-2.7-1.4c-1.8,0-3.1,1.4-3.1,3.5c0,2.1,1.2,3.5,3.1,3.5
		C93.7,26.1,94.9,25.6,95.4,24.8z"/>
	<path class="st0" d="M109.9,28.7v-7.3c0-1.7-0.9-2.2-2.2-2.2c-1.2,0-2.2,0.7-2.7,1.4v8.1h-3.2V16.6h3.2v1.5
		c0.8-0.9,2.3-1.8,4.2-1.8c2.7,0,3.9,1.5,3.9,3.8v8.5H109.9z"/>
	<path class="st0" d="M124.5,28.7v-1.5c-0.9,1.2-2.2,1.8-3.7,1.8c-3,0-5.3-2.3-5.3-6.3c0-3.9,2.3-6.3,5.3-6.3c1.4,0,2.8,0.6,3.7,1.8
		V12h3.2v16.7H124.5z M124.5,24.8v-4.3c-0.5-0.8-1.7-1.4-2.7-1.4c-1.8,0-3.1,1.4-3.1,3.5c0,2.1,1.2,3.5,3.1,3.5
		C122.9,26.1,124,25.6,124.5,24.8z"/>
	<path class="st0" d="M136.5,22.6c0-3.7,2.7-6.3,6.4-6.3c2.5,0,4,1.1,4.8,2.2l-2.1,1.9c-0.6-0.8-1.4-1.3-2.5-1.3
		c-1.9,0-3.3,1.4-3.3,3.5c0,2.1,1.3,3.5,3.3,3.5c1.1,0,2-0.5,2.5-1.3l2.1,1.9c-0.8,1.1-2.3,2.2-4.8,2.2
		C139.2,29,136.5,26.3,136.5,22.6z"/>
	<path class="st0" d="M149,22.6c0-3.4,2.4-6.3,6.4-6.3c4,0,6.4,2.9,6.4,6.3c0,3.4-2.4,6.3-6.4,6.3C151.4,29,149,26,149,22.6z
		 M158.5,22.6c0-1.9-1.1-3.5-3.1-3.5c-2,0-3.1,1.6-3.1,3.5c0,1.9,1.1,3.5,3.1,3.5C157.4,26.1,158.5,24.5,158.5,22.6z"/>
	<path class="st0" d="M172.5,28.7v-1.5c-0.9,1.2-2.2,1.8-3.7,1.8c-3,0-5.3-2.3-5.3-6.3c0-3.9,2.3-6.3,5.3-6.3c1.4,0,2.8,0.6,3.7,1.8
		V12h3.2v16.7H172.5z M172.5,24.8v-4.3c-0.5-0.8-1.7-1.4-2.7-1.4c-1.8,0-3.1,1.4-3.1,3.5c0,2.1,1.2,3.5,3.1,3.5
		C170.8,26.1,171.9,25.6,172.5,24.8z"/>
	<path class="st0" d="M178,22.6c0-3.5,2.6-6.3,6.2-6.3c3.6,0,6,2.7,6,6.6v0.8h-9c0.2,1.5,1.4,2.7,3.5,2.7c1,0,2.4-0.4,3.2-1.2
		l1.4,2.1c-1.2,1.1-3.1,1.7-5,1.7C180.8,29,178,26.5,178,22.6z M184.3,18.9c-2,0-2.8,1.4-2.9,2.6h5.9
		C187.2,20.3,186.4,18.9,184.3,18.9z"/>
	<path class="st0" d="M200.9,28.7v-1.5c-0.9,1.2-2.2,1.8-3.7,1.8c-3,0-5.3-2.3-5.3-6.3c0-3.9,2.3-6.3,5.3-6.3c1.4,0,2.8,0.6,3.7,1.8
		V12h3.2v16.7H200.9z M200.9,24.8v-4.3c-0.5-0.8-1.7-1.4-2.7-1.4c-1.8,0-3.1,1.4-3.1,3.5c0,2.1,1.2,3.5,3.1,3.5
		C199.3,26.1,200.4,25.6,200.9,24.8z"/>
	<path class="st0" d="M213.7,28.7V12h3.2v6.1c0.9-1.2,2.3-1.8,3.7-1.8c3.1,0,5.3,2.4,5.3,6.3c0,4-2.3,6.3-5.3,6.3
		c-1.4,0-2.8-0.6-3.7-1.8v1.5H213.7z M219.6,26.1c1.8,0,3-1.4,3-3.5c0-2.1-1.2-3.5-3-3.5c-1,0-2.2,0.6-2.7,1.4v4.3
		C217.4,25.6,218.6,26.1,219.6,26.1z"/>
	<path class="st0" d="M228.2,31.8l1.4-2.3c0.9,1,2.3,1.5,3.6,1.5c2,0,3.2-1.4,3.2-3.1v-1.2c-0.8,0.9-2.3,1.8-4.2,1.8
		c-2.6,0-3.9-1.4-3.9-3.8v-8h3.2v6.8c0,1.7,0.9,2.2,2.2,2.2c1.2,0,2.2-0.7,2.7-1.4v-7.6h3.2v11.3c0,3.6-2.6,5.7-6.4,5.7
		C231.2,33.6,229.6,33,228.2,31.8z"/>
	<path class="st1" d="M263.8,28.7v-12l-4.7,12h-1.5l-4.7-12v12h-3.5V12h5l4,10.4l4-10.4h5v16.7H263.8z"/>
	<path class="st1" d="M269.9,22.6c0-3.4,2.4-6.3,6.4-6.3c4,0,6.4,2.9,6.4,6.3c0,3.4-2.4,6.3-6.4,6.3C272.3,29,269.9,26,269.9,22.6z
		 M279.3,22.6c0-1.9-1.1-3.5-3.1-3.5c-2,0-3.1,1.6-3.1,3.5c0,1.9,1.1,3.5,3.1,3.5C278.2,26.1,279.3,24.5,279.3,22.6z"/>
	<path class="st1" d="M293.3,28.7v-1.5c-0.9,1.2-2.2,1.8-3.7,1.8c-3,0-5.3-2.3-5.3-6.3c0-3.9,2.3-6.3,5.3-6.3c1.4,0,2.7,0.6,3.7,1.8
		v-1.5h3.2v12.1H293.3z M293.3,24.8v-4.2c-0.5-0.8-1.7-1.4-2.7-1.4c-1.8,0-3.1,1.4-3.1,3.5c0,2.1,1.2,3.5,3.1,3.5
		C291.6,26.1,292.8,25.6,293.3,24.8z"/>
	<path class="st1" d="M308,28.7v-1.5c-1,1.2-2.2,1.8-3.7,1.8c-3,0-5.3-2.3-5.3-6.3c0-3.9,2.3-6.3,5.3-6.3c1.4,0,2.7,0.6,3.7,1.8
		v-1.5h3.2v12.1H308z M308,24.8v-4.2c-0.5-0.8-1.7-1.4-2.7-1.4c-1.8,0-3.1,1.4-3.1,3.5c0,2.1,1.2,3.5,3.1,3.5
		C306.3,26.1,307.4,25.6,308,24.8z"/>
	<path class="st1" d="M313.8,28.7v-2.4l5.4-6.9h-5.4v-2.8h9.8v2.3l-5.5,7h5.6v2.8H313.8z"/>
	<path class="st1" d="M342.7,28.7l-5-6.7l-1.3,1.6v5.1h-3.5V12h3.5v7.4l5.9-7.4h4.4l-6.6,7.8l7.1,8.8H342.7z"/>
	<path class="st1" d="M356.8,28.7v-7.3c0-1.7-0.9-2.2-2.2-2.2c-1.2,0-2.2,0.7-2.8,1.4v8.1h-3.2V12h3.2v6.1c0.8-0.9,2.2-1.8,4.2-1.8
		c2.6,0,3.9,1.4,3.9,3.8v8.6H356.8z"/>
	<path class="st1" d="M371.4,28.7v-1.5c-1,1.2-2.2,1.8-3.7,1.8c-3,0-5.3-2.3-5.3-6.3c0-3.9,2.3-6.3,5.3-6.3c1.4,0,2.7,0.6,3.7,1.8
		v-1.5h3.2v12.1H371.4z M371.4,24.8v-4.2c-0.5-0.8-1.7-1.4-2.7-1.4c-1.8,0-3.1,1.4-3.1,3.5c0,2.1,1.2,3.5,3.1,3.5
		C369.7,26.1,370.9,25.6,371.4,24.8z"/>
	<path class="st1" d="M385.9,28.7v-7.3c0-1.7-0.9-2.2-2.2-2.2c-1.2,0-2.2,0.7-2.7,1.4v8.1h-3.2V16.6h3.2v1.5
		c0.8-0.9,2.3-1.8,4.2-1.8c2.7,0,3.9,1.5,3.9,3.8v8.5H385.9z"/>
</g>
</svg>
