<?xml version="1.0" encoding="utf-8"?>
<!-- Generator: Adobe Illustrator 20.0.0, SVG Export Plug-In . SVG Version: 6.00 Build 0)  -->
<svg version="1.1" id="Capa_1" xmlns="http://www.w3.org/2000/svg" xmlns:xlink="http://www.w3.org/1999/xlink" x="0px" y="0px"
	 viewBox="0 0 24 24" style="enable-background:new 0 0 24 24;" xml:space="preserve">
<style type="text/css">
	.st0{fill:#FFFFFF;}
</style>
<g>
	<path class="st0" d="M22.4,6.1c-1.1-1.9-2.5-3.4-4.4-4.5C16.2,0.5,14.2,0,12,0S7.8,0.5,6,1.6S2.7,4.2,1.6,6.1S0,10.1,0,12.3
		c0,2.7,0.8,5.1,2.3,7.2s3.5,3.6,5.9,4.4c0.3,0.1,0.5,0,0.6-0.1S9,23.6,9,23.4c0,0,0-0.3,0-0.9c0-0.5,0-1,0-1.4l-0.4,0.1
		c-0.2,0-0.5,0.1-0.9,0.1c-0.4,0-0.7,0-1.1-0.1c-0.4-0.1-0.7-0.2-1-0.5c-0.3-0.3-0.6-0.6-0.7-1l-0.2-0.4c-0.1-0.2-0.3-0.5-0.5-0.8
		c-0.2-0.3-0.4-0.5-0.7-0.6l-0.1-0.1c-0.1-0.1-0.1-0.1-0.2-0.2c-0.1-0.1-0.1-0.2-0.1-0.2c0-0.1,0-0.1,0.1-0.2
		c0.1-0.1,0.2-0.1,0.5-0.1L4,17.1c0.2,0,0.5,0.2,0.8,0.4c0.3,0.2,0.6,0.5,0.8,0.8c0.2,0.4,0.5,0.8,0.9,1c0.3,0.2,0.7,0.3,1,0.3
		s0.6,0,0.9-0.1c0.3-0.1,0.5-0.1,0.7-0.2c0.1-0.7,0.4-1.3,0.8-1.6c-0.6-0.1-1.1-0.2-1.6-0.3c-0.5-0.1-1-0.3-1.5-0.6
		c-0.5-0.3-0.9-0.6-1.3-1.1s-0.6-1-0.8-1.7s-0.3-1.5-0.3-2.4c0-1.3,0.4-2.4,1.2-3.3c-0.4-1-0.4-2.1,0.1-3.3C6,5,6.4,5.1,7,5.3
		c0.6,0.2,1,0.4,1.3,0.6C8.6,6.1,8.8,6.2,9,6.4C10,6.1,11,6,12,6s2,0.1,3,0.4L15.6,6C16,5.7,16.5,5.5,17,5.3c0.6-0.2,1-0.3,1.3-0.2
		c0.5,1.2,0.5,2.3,0.1,3.3c0.8,0.9,1.2,2,1.2,3.3c0,0.9-0.1,1.7-0.3,2.4c-0.2,0.7-0.5,1.3-0.8,1.7c-0.3,0.4-0.8,0.8-1.3,1.1
		c-0.5,0.3-1,0.5-1.5,0.6c-0.5,0.1-1,0.2-1.6,0.3C14.7,18.2,15,19,15,20v3.4c0,0.2,0.1,0.4,0.2,0.5c0.1,0.1,0.3,0.2,0.6,0.1
		c2.4-0.8,4.4-2.3,5.9-4.4c1.5-2.1,2.3-4.5,2.3-7.2C24,10.1,23.5,8,22.4,6.1z"/>
</g>
</svg>
