<?xml version="1.0" encoding="utf-8"?>
<!-- Generator: Adobe Illustrator 20.0.0, SVG Export Plug-In . SVG Version: 6.00 Build 0)  -->
<svg version="1.1" id="Layer_1" xmlns="http://www.w3.org/2000/svg" xmlns:xlink="http://www.w3.org/1999/xlink" x="0px" y="0px"
	 viewBox="0 0 253.8 44.7" style="enable-background:new 0 0 253.8 44.7;" xml:space="preserve">
<style type="text/css">
	.st0{fill:#FFFFFF;}
	.st1{fill:#FF5252;}
</style>
<g>
	<path class="st0" d="M0.7,16.7L3.6,3.3h3.9c3,0,5.3,2.4,5.3,5.7c0,3.7-2.8,7.7-8.2,7.7H0.7z M4.7,16.1c4.5,0,7.4-3.3,7.4-7.1
		c0-2.9-2.1-5.1-4.8-5.1H4.1L1.4,16.1H4.7L4.7,16.1z"/>
	<path class="st0" d="M14.7,12.7c0-3.2,2.4-5.9,5.3-5.9c2.6,0,4,1.9,4,4.1c0,0.4-0.1,0.9-0.1,1.1h-8.5c0,0.1,0,0.4,0,0.6
		c0,2.1,1.3,3.7,3.8,3.7c1,0,2.2-0.4,3.1-1.1l0.3,0.4c-0.8,0.7-2.1,1.2-3.4,1.2C16.3,16.9,14.7,15.1,14.7,12.7z M23.4,11.5
		c0-0.1,0-0.4,0-0.5c0-2.2-1.3-3.7-3.5-3.7c-2.1,0-4,1.9-4.4,4.2H23.4L23.4,11.5z"/>
	<path class="st0" d="M25.4,15.2l0.5-0.4c0.5,0.8,1.6,1.5,3.1,1.5c1.8,0,2.9-1.1,2.9-2.3c0-2.3-5.2-2.1-5.2-4.6
		c0-1.5,1.2-2.7,3.4-2.7c1.7,0,2.9,0.8,3.4,1.6L33,8.7c-0.4-0.8-1.6-1.4-2.9-1.4c-1.6,0-2.7,0.9-2.7,2c0,2.2,5.2,1.9,5.2,4.6
		c0,1.5-1.2,3-3.5,3C27.3,16.9,26.1,16.3,25.4,15.2z"/>
	<path class="st0" d="M34.8,16.7L37,7h0.6l-2.1,9.7H34.8z M37.1,4.8c0-0.4,0.4-0.6,0.7-0.6s0.5,0.2,0.5,0.5c0,0.4-0.4,0.6-0.7,0.6
		C37.4,5.3,37.1,5.1,37.1,4.8z"/>
	<path class="st0" d="M38.4,19l0.5-0.5c0.7,1.1,1.8,1.5,3.5,1.5s3.1-0.9,3.7-3.3l0.3-1.6c-0.8,1-2,1.8-3.6,1.8
		c-2.1,0-3.7-1.4-3.7-4.1c0-3.1,2-6.1,5-6.1c1.4,0,2.9,0.9,3.6,2L48.3,7h0.6l-2.2,9.7c-0.6,2.8-2.2,3.9-4.3,3.9
		C40.7,20.6,39.4,20.3,38.4,19z M46.6,14.4l1.2-5.2c-0.6-1.2-2.1-2-3.6-2c-2.7,0-4.3,2.9-4.3,5.5c0,2.2,1.2,3.5,3.1,3.5
		C44.4,16.4,45.8,15.5,46.6,14.4z"/>
	<path class="st0" d="M56.7,16.7l1.5-6.8c0-0.2,0.1-0.5,0.1-0.8c0-1.3-1-1.8-2.3-1.8s-2.7,0.9-3.6,1.9l-1.7,7.5h-0.6L52.3,7h0.6
		l-0.3,1.5c0.9-0.9,2.2-1.8,3.6-1.8C57.8,6.7,59,7.4,59,9c0,0.2-0.1,0.6-0.1,0.8l-1.5,6.7h-0.7V16.7z"/>
	<path class="st0" d="M72.2,16.7l0.2-1.1c-0.9,0.9-1.8,1.3-3.1,1.3c-1.7,0-3.3-0.9-3.3-2.8c0-2.3,1.7-3.6,3.6-3.6
		c1.7,0,2.8,0.6,3.5,1.6l0.5-2.1c0-0.1,0.1-0.5,0.1-0.7c0-1.2-1.1-2-2.8-2c-1.2,0-2.3,0.6-3,1.3l-0.4-0.4c1.1-1,2.2-1.4,3.4-1.4
		c1.9,0,3.4,0.8,3.4,2.5c0,0.3-0.1,0.6-0.1,0.8l-1.5,6.6H72.2z M72.6,14.9l0.5-2.4c-0.6-1.1-1.9-1.6-3.3-1.6c-1.8,0-3.1,1.3-3.1,3
		c0,1.5,1.2,2.3,2.7,2.3C70.7,16.4,71.7,15.8,72.6,14.9z"/>
	<path class="st0" d="M82.7,16.7l1.5-6.8c0-0.2,0.1-0.5,0.1-0.8c0-1.3-1-1.8-2.3-1.8s-2.7,0.9-3.6,1.9l-1.7,7.5h-0.6L78.4,7H79
		l-0.3,1.5c0.9-0.9,2.2-1.8,3.6-1.8c1.6,0,2.8,0.7,2.8,2.3c0,0.2-0.1,0.6-0.1,0.8l-1.5,6.7h-0.8V16.7z"/>
	<path class="st0" d="M95.8,8.7L97,3.3h0.6l-3,13.3H94l0.3-1.5c-0.8,1-2,1.8-3.4,1.8c-2.2,0-3.8-1.5-3.8-4c0-3.3,2.1-6.2,5.1-6.2
		C93.9,6.8,95.2,7.6,95.8,8.7z M87.8,12.9c0,2.2,1.2,3.5,3.2,3.5c1.5,0,2.9-1,3.6-2.1l1.1-5c-0.5-1.1-1.8-2-3.5-2
		C89.6,7.3,87.8,10.1,87.8,12.9z"/>
	<path class="st0" d="M104.1,11.2c0-4.9,3.7-8.1,7.3-8.1c2.1,0,4,0.8,5,2.6l-0.6,0.4c-1-1.7-2.7-2.4-4.5-2.4c-3.2,0-6.5,2.8-6.5,7.5
		c0,3.1,2,5.1,5.1,5.1c1.3,0,2.6-0.4,4-1.5l0.4,0.5c-1.3,1.1-2.8,1.7-4.4,1.7C106.5,16.9,104.1,14.6,104.1,11.2z"/>
	<path class="st0" d="M117,12.7c0-3.1,2.2-5.9,5.2-5.9c2.5,0,4.1,1.6,4.1,4.2c0,3.1-2.2,5.9-5.2,5.9C118.7,16.9,117,15.3,117,12.7z
		 M125.7,11c0-2.2-1.3-3.7-3.4-3.7c-2.6,0-4.5,2.7-4.5,5.4c0,2.2,1.3,3.7,3.4,3.7C123.7,16.4,125.7,13.7,125.7,11z"/>
	<path class="st0" d="M137.1,8.7l1.2-5.4h0.6l-3,13.3h-0.6l0.3-1.5c-0.8,1-2,1.8-3.4,1.8c-2.2,0-3.8-1.5-3.8-4
		c0-3.3,2.1-6.2,5.1-6.2C135.2,6.8,136.4,7.6,137.1,8.7z M129.1,12.9c0,2.2,1.2,3.5,3.2,3.5c1.5,0,2.9-1,3.6-2.1l1.1-5
		c-0.5-1.1-1.8-2-3.5-2C130.8,7.3,129.1,10.1,129.1,12.9z"/>
	<path class="st0" d="M139.7,12.7c0-3.2,2.4-5.9,5.3-5.9c2.6,0,4,1.9,4,4.1c0,0.4-0.1,0.9-0.1,1.1h-8.5c0,0.1,0,0.4,0,0.6
		c0,2.1,1.3,3.7,3.8,3.7c1,0,2.2-0.4,3.1-1.1l0.3,0.4c-0.8,0.7-2.1,1.2-3.4,1.2C141.4,16.9,139.7,15.1,139.7,12.7z M148.4,11.5
		c0-0.1,0-0.4,0-0.5c0-2.2-1.3-3.7-3.5-3.7c-2.1,0-4,1.9-4.4,4.2H148.4L148.4,11.5z"/>
	<path class="st0" d="M159.8,8.7l1.2-5.4h0.6l-3,13.3H158l0.3-1.5c-0.8,1-2,1.8-3.4,1.8c-2.2,0-3.8-1.5-3.8-4c0-3.3,2.1-6.2,5.1-6.2
		C157.9,6.8,159.2,7.6,159.8,8.7z M151.8,12.9c0,2.2,1.2,3.5,3.2,3.5c1.5,0,2.9-1,3.6-2.1l1.1-5c-0.5-1.1-1.8-2-3.5-2
		C153.6,7.3,151.8,10.1,151.8,12.9z"/>
	<path class="st0" d="M168.3,14.9l-0.4,1.7h-0.6l2.9-13.3h0.6l-1.1,5.2c0.8-1,2-1.8,3.4-1.8c2.2,0,3.8,1.5,3.8,4
		c0,3.3-2.1,6.2-5.1,6.2C170.2,16.9,168.9,16.1,168.3,14.9z M176.3,10.8c0-2.2-1.2-3.5-3.2-3.5c-1.5,0-2.9,1-3.6,2.1l-1.1,5
		c0.5,1.1,1.8,2,3.5,2C174.5,16.4,176.3,13.6,176.3,10.8z"/>
	<path class="st0" d="M177.4,19l0.5-0.5c0.6,1.1,1.9,1.5,3.5,1.5c2,0,3.2-1.3,3.7-3.3l0.3-1.6c-1,0.9-2.2,1.7-3.5,1.7
		c-1.4,0-2.7-0.6-2.7-2.3c0-0.2,0-0.4,0.1-0.9l1.5-6.7h0.6l-1.5,6.8c-0.1,0.3-0.1,0.6-0.1,0.8c0,1.4,1.1,1.8,2.3,1.8
		c1.3,0,2.7-0.9,3.6-1.9l1.7-7.5h0.6l-2.2,9.7c-0.7,2.9-2.3,3.8-4.3,3.8C179.4,20.6,178.3,20.1,177.4,19z"/>
	<path class="st1" d="M205.6,16.7l2.1-9.6l-5.9,9.6h-1.2L198.9,7l-2.1,9.6H194l2.9-13.3h3.9l1.4,8.3l5.1-8.3h4.1l-2.9,13.3h-2.9
		V16.7z"/>
	<path class="st1" d="M211.4,12.5c0-3,2.3-5.7,5.6-5.7c3.1,0,4.8,1.9,4.8,4.4c0,3-2.3,5.7-5.6,5.7C213.1,16.9,211.4,15,211.4,12.5z
		 M219.1,11.3c0-1.4-0.8-2.3-2.2-2.3c-1.7,0-2.9,1.6-2.9,3.4c0,1.4,0.9,2.3,2.3,2.3C218,14.6,219.1,13,219.1,11.3z"/>
	<path class="st1" d="M228.5,16.7l0.2-1c-0.7,0.7-1.6,1.2-2.9,1.2c-1.6,0-3.2-0.9-3.2-2.8c0-2.2,1.7-3.5,3.6-3.5
		c1.4,0,2.4,0.4,3.3,1.3l0.3-1.1c0-0.1,0-0.3,0-0.5c0-0.9-0.9-1.5-2.3-1.5c-1,0-1.9,0.3-2.7,0.9l-0.6-1.8c1.1-0.8,2.4-1.2,3.8-1.2
		c2.3,0,4.3,0.9,4.3,3.1c0,0.2-0.1,0.8-0.1,1l-1.3,5.8L228.5,16.7L228.5,16.7z M229,14.4l0.3-1.2c-0.4-0.6-1.2-0.9-2.2-0.9
		c-1.1,0-1.8,0.7-1.8,1.6c0,0.8,0.7,1.3,1.7,1.3C227.9,15.2,228.5,14.9,229,14.4z"/>
	<path class="st1" d="M239.4,16.7l0.2-1c-0.7,0.7-1.6,1.2-2.9,1.2c-1.6,0-3.2-0.9-3.2-2.8c0-2.2,1.7-3.5,3.6-3.5
		c1.4,0,2.4,0.4,3.3,1.3l0.3-1.1c0-0.1,0-0.3,0-0.5c0-0.9-0.9-1.5-2.3-1.5c-1,0-1.9,0.3-2.7,0.9l-0.6-1.8c1.1-0.8,2.4-1.2,3.8-1.2
		c2.3,0,4.3,0.9,4.3,3.1c0,0.2-0.1,0.8-0.1,1l-1.3,5.8L239.4,16.7L239.4,16.7z M239.9,14.4l0.3-1.2c-0.4-0.6-1.2-0.9-2.2-0.9
		c-1.1,0-1.8,0.7-1.8,1.6c0,0.8,0.7,1.3,1.7,1.3C238.7,15.2,239.4,14.9,239.9,14.4z"/>
	<path class="st1" d="M243.8,16.7l0.4-1.9l5.5-5.5h-4.3L246,7h7.8l-0.4,1.8l-5.6,5.6h4.4l-0.5,2.2h-7.9V16.7z"/>
	<path class="st0" d="M76.1,40.7l-1-8.8l-4.9,8.8h-0.5l-1-9.7h0.6l0.9,8.7L75,31h0.5l1,8.7l4.7-8.7h0.7l-5.3,9.7H76.1z"/>
	<path class="st0" d="M81.9,40.7L84,31h0.6l-2.1,9.7H81.9z M84.2,28.8c0-0.4,0.4-0.6,0.7-0.6c0.3,0,0.5,0.2,0.5,0.5
		c0,0.4-0.4,0.6-0.7,0.6C84.5,29.3,84.2,29.1,84.2,28.8z"/>
	<path class="st0" d="M86.4,39.5c0-0.1,0-0.3,0.1-0.5l1.7-7.4h-1.6l0.1-0.5h1.6l0.6-2.6h0.6L88.8,31h2l-0.1,0.5h-2L87,39
		c0,0.1,0,0.3,0,0.4c0,0.6,0.3,1,1,1c0.4,0,0.8-0.2,1.1-0.4l0.2,0.5C88.9,40.8,88.5,41,88,41C87,40.9,86.4,40.5,86.4,39.5z"/>
	<path class="st0" d="M97.6,40.7l1.5-6.8c0-0.2,0.1-0.6,0.1-0.7c0-1.3-1-1.8-2.3-1.8s-2.7,0.9-3.6,1.9l-1.7,7.5H91l3-13.5h0.6
		l-1.1,5.2c0.9-0.9,2.2-1.8,3.6-1.8c1.6,0,2.8,0.7,2.8,2.3c0,0.2-0.1,0.6-0.1,0.8l-1.5,6.7h-0.7V40.7z"/>
</g>
<g>
	<path id="path1971_1_" class="st1" d="M153.8,40.6h4.5V21.8h-4.5V40.6L153.8,40.6z"/>
	<path id="path1973_1_" class="st1" d="M159.6,40.6h4.5V21.8h-4.5V40.6z"/>
	<path id="path1975_1_" class="st1" d="M148,32.7c0.1,0.2,0.2,0.4,0.2,0.6h-4.5c0.1-0.7,0.8-1.4,1.6-1.6
		C146.3,31.4,147.4,31.8,148,32.7 M152.1,31.7c0.7,1.1,0.8,2.6,0.6,4h-1.6h-7.5c0,0.6,0.5,1.3,1.1,1.6c0.7,0.4,1.8,0.4,2.5-0.1
		c0.3-0.2,0.6-0.5,0.8-0.8h4.5c-0.5,2.1-2.7,4-5,4.4c-2.7,0.5-5.4-0.3-7.2-2.4c-1.6-1.9-1.9-5-0.5-7.1c1.5-2.3,4.1-3.6,7-3.2
		C149,28.5,151.1,29.9,152.1,31.7 M175,33.1c0.6,0.8,0.6,2,0.2,2.9c-0.6,1-1.8,1.6-3.1,1.4c-0.9-0.1-1.8-0.8-2.2-1.6
		c-0.4-0.9-0.2-2,0.4-2.7c0.7-0.9,1.8-1.2,2.9-1C173.8,32,174.5,32.4,175,33.1 M175.2,29.5v-0.8h4.6v12h-4.6v-0.8
		c-0.3,0.2-0.5,0.3-0.9,0.5c-2.1,0.9-4.9,0.6-6.7-0.7c-2.1-1.6-3.1-3.8-2.6-6.3c0.4-2.2,2.5-4.4,4.9-4.9
		C171.8,28,173.8,28.4,175.2,29.5"/>
	<path id="path1977_1_" class="st1" d="M136.3,28.7h2.5V32h-2.5v4.8c0,0.4,0.3,0.7,0.8,0.7h1.7v3.1h-4.2c-1,0-2.1-0.8-2.4-1.7
		c-0.2-0.5-0.3-1-0.3-1.5V32h-1.8v-3.3h1.8v-2.4l4.4-1.6V28.7"/>
	<path id="path1979_1_" d="M115.7,32.9v7.7h-4.4v-7.3c0-2.5-3.6-2.5-3.6,0v7.3h-4.4v-12h4.4v1C110.9,27.1,115.7,28.7,115.7,32.9"/>
	<path id="path1981_1_" class="st1" d="M117.2,36.4v-7.7h4.4V36c0,2.5,3.6,2.5,3.6,0v-7.3h4.4v12h-4.4v-1
		C122,42.3,117.2,40.6,117.2,36.4"/>
</g>
</svg>
